<svg width="24" height="24" viewBox="0 0 24 24" fill="none" xmlns="http://www.w3.org/2000/svg">
<path d="M8.24301 3.02998C8.50026 3.09443 8.72138 3.25844 8.85772 3.48592C8.99406 3.7134 9.03445 3.98572 8.97001 4.24298L4.97001 20.243C4.94002 20.3723 4.88458 20.4944 4.80692 20.6021C4.72926 20.7097 4.63093 20.8009 4.51768 20.8702C4.40442 20.9394 4.2785 20.9855 4.14727 21.0056C4.01604 21.0257 3.88211 21.0194 3.75331 20.9872C3.62451 20.955 3.50341 20.8975 3.39708 20.818C3.29075 20.7385 3.20131 20.6387 3.13398 20.5242C3.06665 20.4098 3.02278 20.2831 3.00493 20.1516C2.98708 20.02 2.9956 19.8862 3.03001 19.758L7.03001 3.75798C7.06181 3.63051 7.11842 3.51055 7.19661 3.40497C7.27479 3.29939 7.37301 3.21024 7.48566 3.14264C7.59831 3.07503 7.72317 3.03028 7.85312 3.01095C7.98307 2.99162 8.11556 2.99808 8.24301 3.02998ZM16.97 3.75698L20.97 19.757C21.0044 19.8852 21.0129 20.019 20.9951 20.1506C20.9772 20.2821 20.9334 20.4088 20.866 20.5232C20.7987 20.6377 20.7093 20.7375 20.6029 20.817C20.4966 20.8965 20.3755 20.954 20.2467 20.9862C20.1179 21.0184 19.984 21.0247 19.8527 21.0046C19.7215 20.9845 19.5956 20.9384 19.4823 20.8692C19.3691 20.7999 19.2708 20.7087 19.1931 20.6011C19.1154 20.4934 19.06 20.3713 19.03 20.242L15.03 4.24198C14.9956 4.11375 14.9871 3.97995 15.0049 3.84839C15.0228 3.71683 15.0667 3.59015 15.134 3.47572C15.2013 3.3613 15.2907 3.26142 15.3971 3.18193C15.5034 3.10243 15.6245 3.04491 15.7533 3.01271C15.8821 2.98051 16.016 2.97428 16.1473 2.99438C16.2785 3.01448 16.4044 3.06052 16.5177 3.1298C16.6309 3.19908 16.7293 3.29022 16.8069 3.3979C16.8846 3.50558 16.94 3.62764 16.97 3.75698ZM12 17C12.2449 17 12.4813 17.0899 12.6644 17.2527C12.8474 17.4155 12.9643 17.6397 12.993 17.883L13 18V20C12.9997 20.2549 12.9021 20.5 12.7272 20.6853C12.5522 20.8707 12.3131 20.9822 12.0586 20.9971C11.8042 21.0121 11.5536 20.9293 11.3582 20.7657C11.1627 20.6021 11.0371 20.3701 11.007 20.117L11 20V18C11 17.7348 11.1054 17.4804 11.2929 17.2929C11.4804 17.1053 11.7348 17 12 17ZM12 9.99998C12.2652 9.99998 12.5196 10.1053 12.7071 10.2929C12.8946 10.4804 13 10.7348 13 11V13C13 13.2652 12.8946 13.5195 12.7071 13.7071C12.5196 13.8946 12.2652 14 12 14C11.7348 14 11.4804 13.8946 11.2929 13.7071C11.1054 13.5195 11 13.2652 11 13V11C11 10.7348 11.1054 10.4804 11.2929 10.2929C11.4804 10.1053 11.7348 9.99998 12 9.99998ZM12 2.99998C12.2449 3.00001 12.4813 3.08993 12.6644 3.25269C12.8474 3.41545 12.9643 3.63973 12.993 3.88298L13 3.99998V5.99998C12.9997 6.25486 12.9021 6.50001 12.7272 6.68535C12.5522 6.87068 12.3131 6.98221 12.0586 6.99715C11.8042 7.01209 11.5536 6.9293 11.3582 6.76571C11.1627 6.60212 11.0371 6.37007 11.007 6.11698L11 5.99998V3.99998C11 3.73476 11.1054 3.48041 11.2929 3.29287C11.4804 3.10533 11.7348 2.99998 12 2.99998Z" fill="#090B15"/>
</svg>
