<svg xmlns="http://www.w3.org/2000/svg" aria-hidden="true" style="position:absolute;width:0;height:0;overflow:hidden">
  <defs>
    <symbol id="instagram" viewBox="0 0 32 32">
      <path fill="none" stroke="#ded47b" stroke-width="1.6" d="M16 1.6c3.104 0 4.158 0 5.159.038l1.058.053h.028a10.29 10.29 0 0 1 3.014.517l.422.15a6.34 6.34 0 0 1 2.133 1.3l.256.252.017.016a6.707 6.707 0 0 1 1.57 2.392v.002c.403 1.103.624 2.264.652 3.438v.027c.09 1.585.091 2.078.091 6.217 0 2.06-.023 3.216-.045 4.056-.022.83-.045 1.378-.045 2.187a10.773 10.773 0 0 1-.648 3.43 6.575 6.575 0 0 1-1.572 2.398l-.019.019a6.347 6.347 0 0 1-2.053 1.419l-.344.136c-1.096.414-2.256.64-3.428.664h-.028c-1.584.09-2.078.091-6.217.091s-4.633-.001-6.217-.091h-.028a10.29 10.29 0 0 1-3.014-.517l-.414-.147-.006-.002-.334-.134a6.47 6.47 0 0 1-2.059-1.42l-.008-.009-.009-.009-.252-.256a6.33 6.33 0 0 1-1.167-1.797l-.136-.344-.147-.414a10.29 10.29 0 0 1-.517-3.014v-.028l-.053-1.058c-.038-1.001-.038-2.055-.038-5.159 0-4.139.001-4.633.091-6.217v-.028a10.29 10.29 0 0 1 .517-3.014l.147-.414.003-.008c.33-.904.86-1.721 1.552-2.389l.009-.009.008-.009a6.455 6.455 0 0 1 2.059-1.42l.334-.134.006-.002a10.303 10.303 0 0 1 3.428-.664h.028c1.585-.09 2.078-.091 6.217-.091zm0 1.136c-2.005 0-3.153.022-3.991.045-.421.012-.757.023-1.081.031l-1.014.014a9.51 9.51 0 0 0-2.772.436l-.381.13-.025.008-.023.011A5.575 5.575 0 0 0 4.788 4.8a5.369 5.369 0 0 0-1.367 1.923l-.005.014-.006.014a9.217 9.217 0 0 0-.581 3.12c-.093 1.549-.092 2.137-.092 6.128 0 2.005.022 3.153.045 3.991.023.842.045 1.344.045 2.089v.012l.002.012a9.24 9.24 0 0 0 .653 3.13v.002a5.36 5.36 0 0 0 1.303 2.034v.002a5.784 5.784 0 0 0 1.941 1.324l.025.009.027.009a9.515 9.515 0 0 0 3.184.497c1.528.091 2.133.092 6.1.092 3.972 0 4.57-.017 6.088-.092l.002.002a9.354 9.354 0 0 0 2.719-.437l.373-.128.008-.003a5.67 5.67 0 0 0 2.038-1.328l-.002-.002a5.445 5.445 0 0 0 1.206-1.744l.116-.287v-.002a9.349 9.349 0 0 0 .566-3.092l-.002-.002c.076-1.517.092-2.116.092-6.088 0-3-.008-4.076-.045-5.077l-.047-1.044a9.343 9.343 0 0 0-.564-3.122l-.009-.022-.117-.275a5.459 5.459 0 0 0-1.192-1.658 5.457 5.457 0 0 0-1.805-1.288l-.298-.122-.005-.002-.373-.128a9.349 9.349 0 0 0-2.692-.438c-1.539-.092-2.135-.091-6.116-.091zm.002 6.267h.002a6.98 6.98 0 0 1 7.002 6.65l.008.345V16a6.999 6.999 0 0 1-7.847 6.945l-.511-.081a7 7 0 0 1-5.108-9.533 6.997 6.997 0 0 1 5.937-4.309l.517-.019zm2.242 1.581a5.861 5.861 0 0 0-5.851 10.036l.352.253a5.862 5.862 0 0 0 8.358-7.76l-.228-.369a5.856 5.856 0 0 0-2.63-2.159zm5.873-3.725a1.023 1.023 0 1 1-.993.775l.047-.144a1.028 1.028 0 0 1 .947-.631z" style="stroke:var(--color1, #ded47b)"/>
    </symbol>
    <symbol id="apple" viewBox="0 0 32 32">
      <path d="M22.364.016c-.068-.076-2.518.03-4.65 2.344-2.132 2.312-1.804 4.964-1.756 5.032s3.04.174 4.95-2.516c1.91-2.69 1.524-4.782 1.456-4.86zm6.628 23.466c-.096-.192-4.65-2.468-4.226-6.844s3.35-5.578 3.396-5.708c.046-.13-1.194-1.58-2.508-2.314a7.408 7.408 0 0 0-3.126-.868c-.216-.006-.966-.19-2.508.232-1.016.278-3.306 1.178-3.936 1.214-.632.036-2.512-1.044-4.534-1.33-1.294-.25-2.666.262-3.648.656-.98.392-2.844 1.508-4.148 4.474-1.304 2.964-.622 7.66-.134 9.12s1.25 3.848 2.546 5.592c1.152 1.968 2.68 3.334 3.318 3.798s2.438.772 3.686.134c1.004-.616 2.816-.97 3.532-.944.714.026 2.122.308 3.564 1.078 1.142.394 2.222.23 3.304-.21 1.082-.442 2.648-2.118 4.476-5.516.693-1.58 1.009-2.435.946-2.564z"/>
    </symbol>
    <symbol id="facebook" viewBox="0 0 19 32">
      <path fill="none" stroke="#ded47b" stroke-linecap="round" stroke-linejoin="round" stroke-width="2.08" d="M17.6 1.6h-4.364c-1.929 0-3.779.759-5.143 2.109S5.963 6.891 5.963 8.8v4.32H1.599v5.76h4.364V30.4h5.818V18.88h4.364l1.455-5.76h-5.818V8.8c0-.382.153-.748.426-1.018s.643-.422 1.029-.422h4.364V1.6z" style="stroke:var(--color1, #ded47b)"/>
    </symbol>
    <symbol id="google-play" viewBox="0 0 29 32">
      <path fill="#ea4335" d="M13.518 15.256.119 29.294a3.64 3.64 0 0 0 2.132 2.381 3.636 3.636 0 0 0 3.188-.225l15.076-8.586-6.999-7.608z" style="fill:var(--color2, #ea4335)"/>
      <path fill="#fbbc04" d="m27.067 12.87-6.519-3.734-7.338 6.44 7.368 7.268 6.47-3.694a3.541 3.541 0 0 0 1.9-3.14 3.545 3.545 0 0 0-1.9-3.14h.02z" style="fill:var(--color3, #fbbc04)"/>
      <path fill="#4285f4" d="M.12 2.656a3.469 3.469 0 0 0-.12.918v24.8c.001.31.041.619.12.919l13.858-13.678L.12 2.656z" style="fill:var(--color4, #4285f4)"/>
      <path fill="#34a853" d="m13.618 15.975 6.929-6.839L5.491.51A3.713 3.713 0 0 0 3.624.001 3.634 3.634 0 0 0 .12 2.647l13.498 13.329z" style="fill:var(--color5, #34a853)"/>
    </symbol>
    <symbol id="phone" viewBox="0 0 33 32">
      <path fill="none" stroke="#fff" stroke-linecap="round" stroke-linejoin="round" stroke-width="2.462" d="M20.142 6.876c1.381.269 2.651.943 3.646 1.936s1.671 2.26 1.94 3.639m-5.586-11.22c2.87.318 5.546 1.601 7.589 3.637s3.331 4.706 3.654 7.569M29.97 23.701v4.234a2.831 2.831 0 0 1-3.083 2.822 28.022 28.022 0 0 1-12.204-4.333 27.539 27.539 0 0 1-8.485-8.469A27.892 27.892 0 0 1 1.857 5.718a2.828 2.828 0 0 1 .727-2.157 2.833 2.833 0 0 1 2.086-.92h4.242a2.821 2.821 0 0 1 2.828 2.427 18.07 18.07 0 0 0 .99 3.966 2.817 2.817 0 0 1-.636 2.978l-1.796 1.792a22.603 22.603 0 0 0 8.485 8.469l1.796-1.793a2.836 2.836 0 0 1 2.984-.635 18.19 18.19 0 0 0 3.974.988c.687.097 1.314.442 1.763.97s.687 1.203.67 1.895z" style="stroke:var(--color6, #fff)"/>
    </symbol>
    <symbol id="twitter" viewBox="0 0 32 32">
      <path fill="none" stroke="#ded47b" stroke-linecap="round" stroke-linejoin="round" stroke-width="3.556" d="M30.222 2.682a13.417 13.417 0 0 1-4.06 2.274c-.779-1.029-1.814-1.759-2.965-2.09s-2.363-.248-3.471.239c-1.109.486-2.061 1.352-2.727 2.481S15.984 8.051 16 9.415v1.486c-2.272.068-4.524-.511-6.554-1.686S5.67 6.307 4.364 4.169c0 0-5.172 13.375 6.465 19.32-2.663 2.078-5.835 3.119-9.05 2.972 11.636 7.431 25.859 0 25.859-17.091a7.693 7.693 0 0 0-.103-1.233c1.319-1.496 2.251-3.384 2.689-5.454z" style="stroke:var(--color1, #ded47b)"/>
    </symbol>
  </defs>
</svg>
