<svg width="33" height="36" viewBox="0 0 33 36" fill="none" xmlns="http://www.w3.org/2000/svg">
<g clip-path="url(#clip0_192_1367)">
<path d="M15.2082 17.1625L0.134888 32.9548C0.30416 33.5546 0.608346 34.1079 1.0242 34.5722C1.44004 35.0365 1.95655 35.3995 2.53422 35.6336C3.11189 35.8677 3.73543 35.9666 4.35719 35.9228C4.97895 35.879 5.58245 35.6936 6.12157 35.3808L23.0819 25.7213L15.2082 17.1625Z" fill="#EA4335"/>
<path d="M30.4499 14.4782L23.1157 10.2772L14.8601 17.5217L23.1493 25.6987L30.4276 21.5428C31.0724 21.2052 31.6125 20.6975 31.9893 20.0749C32.3661 19.4522 32.5653 18.7382 32.5653 18.0104C32.5653 17.2826 32.3661 16.5687 31.9893 15.946C31.6125 15.3233 31.0724 14.8156 30.4276 14.478L30.4499 14.4782Z" fill="#FBBC04"/>
<path d="M0.13488 2.98779C0.0438237 3.32463 -0.00152964 3.67218 3.93538e-05 4.02111V31.9214C0.000938473 32.2702 0.0462499 32.6174 0.13488 32.9548L15.7249 17.5669L0.13488 2.98779Z" fill="#4285F4"/>
<path d="M15.3205 17.9713L23.1156 10.2773L6.1778 0.572828C5.54052 0.199624 4.81572 0.001975 4.07721 7.80174e-06C2.24451 -0.00355404 0.63329 1.21281 0.134888 2.97656L15.3205 17.9713Z" fill="#34A853"/>
</g>
<defs>
<clipPath id="clip0_192_1367">
<rect width="32.5654" height="36" fill="white"/>
</clipPath>
</defs>
</svg>
