<svg width="20" height="20" viewBox="0 0 20 20" fill="none" xmlns="http://www.w3.org/2000/svg">
<path d="M10 1C11.9403 1 12.5988 0.999749 13.2246 1.02344L13.8857 1.05664H13.9033C14.5442 1.06992 15.1793 1.17929 15.7871 1.37988L16.0459 1.47168L16.0508 1.47363C16.5451 1.65391 16.9984 1.93003 17.3838 2.28613L17.5439 2.44336L17.5547 2.45312C17.9856 2.87504 18.3202 3.38519 18.5361 3.94824V3.94922C18.7882 4.63829 18.9262 5.36412 18.9434 6.09766V6.11426C18.9994 7.10457 19 7.41295 19 10C19 11.2878 18.9858 12.0103 18.9717 12.5352C18.9577 13.0539 18.9436 13.3964 18.9434 13.9023C18.9262 14.6342 18.7891 15.3582 18.5381 16.0459C18.325 16.6117 17.9894 17.1237 17.5557 17.5449L17.5439 17.5566C17.1786 17.9348 16.7423 18.236 16.2607 18.4434L16.0508 18.5264L16.0459 18.5283C15.3607 18.7873 14.6357 18.9282 13.9033 18.9434H13.8857C12.8954 18.9994 12.587 19 10 19C7.41295 19 7.10457 18.9994 6.11426 18.9434H6.09668C5.45576 18.9301 4.82068 18.8207 4.21289 18.6201L3.9541 18.5283L3.9502 18.5273L3.74121 18.4434C3.25923 18.2342 2.82163 17.9331 2.4541 17.5557L2.44922 17.5498L2.44336 17.5439L2.28613 17.3838C1.98099 17.0536 1.73445 16.6737 1.55664 16.2607L1.47363 16.0508L1.47168 16.0459L1.37988 15.7871C1.17929 15.1793 1.06992 14.5442 1.05664 13.9033V13.8857L1.02344 13.2246C0.999749 12.5988 1 11.9403 1 10C1 7.41295 1.00059 7.10457 1.05664 6.11426V6.09668C1.06992 5.45576 1.17929 4.82068 1.37988 4.21289L1.47168 3.9541L1.47363 3.94922C1.67959 3.38447 2.01106 2.87375 2.44336 2.45605L2.44922 2.4502L2.4541 2.44434C2.82163 2.06686 3.25923 1.76578 3.74121 1.55664L3.9502 1.47266L3.9541 1.47168C4.63934 1.21266 5.36428 1.07181 6.09668 1.05664H6.11426C7.10457 1.00059 7.41295 1 10 1ZM10 1.70996C8.74663 1.70996 8.02957 1.7239 7.50586 1.73828C7.24273 1.74551 7.03249 1.75254 6.83008 1.75781L6.2002 1.7666H6.19629C5.60816 1.77121 5.02418 1.86332 4.46387 2.03906L4.22559 2.12012L4.20996 2.125L4.19531 2.13184C3.73649 2.33156 3.32612 2.62758 2.99219 3C2.62194 3.33245 2.32939 3.74262 2.1377 4.20215L2.13477 4.21094L2.13086 4.21973C1.89778 4.84383 1.77526 5.5039 1.76758 6.16992C1.70951 7.13777 1.70996 7.50527 1.70996 10C1.70996 11.2534 1.7239 11.9704 1.73828 12.4941C1.75273 13.0203 1.7666 13.334 1.7666 13.7998V13.8076L1.76758 13.8154C1.78861 14.4863 1.92697 15.1482 2.17578 15.7715V15.7725C2.34673 16.2529 2.62578 16.6875 2.99023 17.0439V17.0449C3.33357 17.4008 3.7464 17.6825 4.20312 17.8721L4.21875 17.8779L4.23535 17.8838C4.87627 18.1001 5.54933 18.2045 6.22559 18.1943C7.18047 18.2514 7.55843 18.252 10.0381 18.252C12.5203 18.252 12.8945 18.2416 13.8428 18.1943L13.8438 18.1953C14.421 18.1887 14.9937 18.0965 15.543 17.9219L15.7764 17.8418L15.7812 17.8398C16.2607 17.6588 16.6957 17.3756 17.0547 17.0098L17.0537 17.0088C17.3741 16.6976 17.6307 16.3278 17.8076 15.9189L17.8799 15.7393V15.7383C18.1061 15.1187 18.2258 14.4652 18.2334 13.8057L18.2324 13.8047C18.2797 12.8565 18.29 12.4822 18.29 10C18.29 8.12481 18.2847 7.45259 18.2617 6.82715L18.2324 6.1748C18.227 5.5091 18.1082 4.84912 17.8799 4.22363L17.874 4.20996L17.8008 4.03809C17.6205 3.64907 17.3672 3.29799 17.0557 3.00195C16.7382 2.65885 16.3544 2.38502 15.9277 2.19727L15.7412 2.12109L15.7383 2.12012L15.5049 2.04004C14.9609 1.86713 14.3939 1.77478 13.8223 1.7666C12.8602 1.70899 12.4881 1.70996 10 1.70996ZM10.001 5.62695H10.002C10.577 5.62471 11.1469 5.73542 11.6787 5.9541C12.2106 6.17289 12.6945 6.49513 13.1016 6.90137C13.5087 7.30771 13.8319 7.79074 14.0518 8.32227C14.2441 8.78725 14.3541 9.28165 14.3779 9.7832L14.3828 9.99902V10C14.3828 10.8646 14.1266 11.7097 13.6465 12.4287C13.1663 13.1477 12.4841 13.7088 11.6855 14.04C10.9867 14.3299 10.2259 14.4323 9.47852 14.3408L9.15918 14.29C8.31115 14.122 7.53184 13.7064 6.91992 13.0957C6.30794 12.4849 5.89042 11.7062 5.7207 10.8584C5.55102 10.0106 5.6371 9.13129 5.9668 8.33203C6.29646 7.533 6.85542 6.84968 7.57324 6.36816C8.20154 5.94679 8.92703 5.69577 9.67773 5.63867L10.001 5.62695ZM11.4023 6.61523C10.7329 6.33795 9.99581 6.26587 9.28516 6.40723C8.57458 6.54861 7.92148 6.89688 7.40918 7.40918C6.89688 7.92148 6.54861 8.57458 6.40723 9.28516C6.26587 9.99581 6.33795 10.7329 6.61523 11.4023C6.8579 11.988 7.24783 12.4994 7.74512 12.8877L7.96484 13.0459C8.5673 13.4484 9.27544 13.6631 10 13.6631C10.4811 13.6631 10.9579 13.5689 11.4023 13.3848C11.8467 13.2007 12.2507 12.9309 12.5908 12.5908C12.9309 12.2507 13.2007 11.8467 13.3848 11.4023C13.5689 10.9579 13.6631 10.4811 13.6631 10C13.6631 9.36603 13.4993 8.74437 13.1885 8.19531L13.0459 7.96484C12.6434 7.36247 12.0716 6.89253 11.4023 6.61523ZM15.0732 4.28711C15.2429 4.28717 15.4054 4.35464 15.5254 4.47461C15.6454 4.59458 15.7128 4.75711 15.7129 4.92676C15.7129 5.05318 15.6756 5.17706 15.6055 5.28223C15.5352 5.38739 15.4352 5.4701 15.3184 5.51855C15.2014 5.56698 15.0724 5.57936 14.9482 5.55469C14.8241 5.52999 14.7096 5.46939 14.6201 5.37988C14.5306 5.29038 14.47 5.1759 14.4453 5.05176C14.4268 4.95859 14.4293 4.86288 14.4521 4.77148L14.4814 4.68164C14.5299 4.56482 14.6126 4.4648 14.7178 4.39453C14.8229 4.32437 14.9468 4.28711 15.0732 4.28711Z" stroke="#DED47B"/>
</svg>
