<svg xmlns="http://www.w3.org/2000/svg" aria-hidden="true" style="position:absolute;width:0;height:0;overflow:hidden">
  <defs>
    <symbol id="email" viewBox="0 0 34 32">
      <path d="M30.933 28.8H3.2A3.195 3.195 0 0 1 0 25.6V6.4c0-1.771 1.429-3.2 3.2-3.2h27.733c1.771 0 3.2 1.429 3.2 3.2v19.2c0 1.771-1.429 3.2-3.2 3.2zM3.2 5.333c-.597 0-1.067.469-1.067 1.067v19.2c0 .597.469 1.067 1.067 1.067h27.733c.597 0 1.067-.469 1.067-1.067V6.4c0-.597-.469-1.067-1.067-1.067H3.2z"/>
      <path d="M17.067 20.181a5.263 5.263 0 0 1-3.883-1.685L1.984 6.592c-.405-.427-.384-1.109.043-1.515s1.109-.384 1.515.043l11.2 11.904c1.216 1.301 3.435 1.301 4.651 0l11.2-11.883c.405-.427 1.088-.448 1.515-.043s.448 1.088.043 1.515l-11.2 11.904a5.261 5.261 0 0 1-3.883 1.685v-.021z"/>
    </symbol>
    <symbol id="location" viewBox="0 0 30 32">
      <path stroke-linecap="round" stroke-linejoin="round" stroke-width="1.882" d="M8.784 24.785c-2.295.517-3.765 1.31-3.765 2.201 0 1.556 4.495 2.818 10.039 2.818s10.039-1.262 10.039-2.818c0-.891-1.47-1.684-3.765-2.201m-3.136-11.294a3.137 3.137 0 1 1-6.275-.001 3.137 3.137 0 0 1 6.275.001z"/>
      <path stroke-linecap="round" stroke-linejoin="round" stroke-width="1.882" d="M16.636 22.894a2.274 2.274 0 0 1-3.154 0c-3.876-3.756-9.07-7.951-6.538-14.042 1.372-3.294 4.659-5.401 8.115-5.401s6.745 2.108 8.115 5.401c2.53 6.082-2.651 10.299-6.538 14.042z"/>
    </symbol>
    <symbol id="person" viewBox="0 0 30 32">
      <path d="M15.058 4.706c1.476 0 2.914.447 4.102 1.277s2.064 1.998 2.498 3.333.406 2.767-.083 4.085a6.595 6.595 0 0 1-2.631 3.24c2.119.735 3.956 2.054 5.276 3.786s2.062 3.798 2.13 5.932c.006.118-.012.237-.055.348s-.108.214-.194.301c-.085.087-.187.157-.302.206a1.003 1.003 0 0 1-.73.021.924.924 0 0 1-.526-.48.841.841 0 0 1-.076-.345c-.075-2.315-1.099-4.511-2.856-6.123s-4.108-2.514-6.555-2.514-4.798.902-6.555 2.514c-1.757 1.612-2.781 3.808-2.856 6.123-.008.236-.114.46-.296.622s-.424.249-.674.242c-.25-.007-.486-.108-.657-.28s-.263-.401-.256-.638c.069-2.134.811-4.2 2.131-5.931s3.157-3.05 5.276-3.785c-1.221-.786-2.143-1.921-2.631-3.24s-.517-2.75-.083-4.085c.435-1.335 1.31-2.503 2.498-3.333s2.626-1.277 4.102-1.277zm-5.021 6.533c0 1.26.529 2.469 1.471 3.36s2.219 1.392 3.551 1.392c1.332 0 2.609-.501 3.551-1.392s1.471-2.1 1.471-3.36c0-1.26-.529-2.469-1.471-3.36s-2.219-1.392-3.551-1.392c-1.332 0-2.609.501-3.551 1.392s-1.471 2.1-1.471 3.36z"/>
    </symbol>
    <symbol id="phone" viewBox="0 0 30 32">
      <path d="M24.471 28.549a1.882 1.882 0 0 0 1.882-1.882v-4.392a1.882 1.882 0 0 0-1.882-1.882c-1.468 0-2.911-.226-4.292-.69a1.897 1.897 0 0 0-1.908.464l-1.807 1.807a18.53 18.53 0 0 1-7.391-7.391l1.794-1.795a1.837 1.837 0 0 0 .477-1.92 13.626 13.626 0 0 1-.678-4.279 1.882 1.882 0 0 0-1.882-1.882H4.392A1.882 1.882 0 0 0 2.51 6.589c0 12.11 9.851 21.961 21.961 21.961zM4.392 5.961h4.392a.628.628 0 0 1 .628.628c0 1.606.251 3.175.74 4.668a.595.595 0 0 1-.151.627l-2.472 2.46c2.071 4.053 5.107 7.09 9.173 9.186l2.447-2.472a.642.642 0 0 1 .64-.163 14.74 14.74 0 0 0 4.681.753.628.628 0 0 1 .628.628v4.392a.628.628 0 0 1-.628.628c-11.42 0-20.706-9.286-20.706-20.706a.628.628 0 0 1 .628-.628z"/>
    </symbol>
    <symbol id="time" viewBox="0 0 31 32">
      <path d="M15.36 29.44A13.439 13.439 0 0 1 5.856 6.496 13.438 13.438 0 0 1 28.8 16a13.437 13.437 0 0 1-13.44 13.44zm0-24.96a11.526 11.526 0 0 0-10.643 7.111 11.524 11.524 0 0 0 2.497 12.555A11.516 11.516 0 0 0 24.938 22.4 11.521 11.521 0 0 0 15.36 4.48z"/>
      <path d="M19.766 21.76 14.4 16.394V7.36h1.92v8.237l4.8 4.81-1.354 1.354z"/>
    </symbol>
    <symbol id="arrow" viewBox="0 0 50 32">
      <path d="M24.889 22.222 4.828 2.666l-3.05 3.393L24.89 29.332 48.001 6.059l-3.556-3.393L24.89 22.222z"/>
    </symbol>
    <symbol id="way" viewBox="0 0 31 32">
      <path d="M15.36 17.92a4.799 4.799 0 0 1-.936-9.508 4.803 4.803 0 0 1 4.927 2.041c.527.789.809 1.717.809 2.667a4.804 4.804 0 0 1-4.8 4.8zm0-7.68a2.883 2.883 0 0 0-2.661 1.778 2.88 2.88 0 1 0 2.661-1.778z"/>
      <path d="m15.68 29.44-8.099-9.551a27.713 27.713 0 0 1-.334-.433A10.46 10.46 0 0 1 5.12 13.12a10.56 10.56 0 0 1 21.12 0 10.469 10.469 0 0 1-2.126 6.333l-.001.003s-.288.378-.331.429l-8.101 9.555zm-6.9-11.141s.224.296.275.359l6.625 7.814 6.634-7.824c.042-.053.267-.35.268-.351a8.54 8.54 0 0 0 1.738-5.176 8.643 8.643 0 0 0-8.64-8.64 8.641 8.641 0 0 0-8.64 8.64A8.548 8.548 0 0 0 8.78 18.3z"/>
    </symbol>
     <symbol id="main_arrow" viewBox="0 0 32 32">
      <path fill="#ded47b" stroke="#000" stroke-width="1.185" d="m28.084 15.75-11.713 9.968v-5.742l-.608.016c-2.634.071-4.712.433-6.414 1.147l-.334.147h-.001c-1.671.77-2.928 1.871-4.17 3.222l-.532.595-.719.82v-.97c0-3.676.778-6.593 2.255-8.736l.304-.419c2.012-2.614 5.217-4.072 9.652-4.254l.568-.023V5.78l11.713 9.969z" style="fill:var(--color1, #ded47b)"/>
    </symbol>
  </defs>
</svg>