<svg xmlns="http://www.w3.org/2000/svg" style="display:none">
  <symbol id="logo" viewBox="0 0 182 64">
 <g id="logo" clip-path="url(#clip0_400_1616)">
<g id="Clip path group">
<mask id="mask0_400_1616" style="mask-type:luminance" maskUnits="userSpaceOnUse" x="-1" y="4" width="137" height="60">
<g id="6213f821b1">
<path id="Vector" d="M-0.251953 4.29346H135.145V63.6575H-0.251953V4.29346Z" fill="white"/>
</g>
</mask>
<g mask="url(#mask0_400_1616)">
<g id="Group">
<path id="Vector_2" d="M45.6417 34.8788C45.476 34.7898 45.3081 34.7009 45.1445 34.61C43.9332 33.6521 42.9047 32.7185 42.0292 31.8091C41.3853 31.1645 41.1197 30.8108 41.1218 30.8108C36.8782 25.8315 37.4243 21.618 40.0381 18.2129C40.5502 17.5461 41.1388 16.9115 41.7869 16.3073C42.9089 15.2645 44.2052 14.3127 45.5737 13.4579C49.4943 11.0046 53.9887 9.33542 56.56 8.49071C56.8277 8.40382 57.0742 8.325 57.2973 8.25427C61.6897 6.92861 66.2818 5.94244 70.9398 5.19473C65.876 4.62082 60.7228 4.30354 55.4826 4.47936C48.3681 4.71984 41.2599 5.90607 34.6491 8.4705C34.2156 8.63823 33.7842 8.81202 33.3528 8.99188C32.7217 9.25459 32.0927 9.52942 31.4701 9.82042C10.2966 19.6922 -1.12955 41.9294 -0.00330175 63.6494H25.8027C25.1312 61.6063 24.5553 58.8539 24.1494 56.0914C24.1877 56.0975 24.2153 56.1015 24.2153 56.1015C23.2442 50.031 24.6318 38.981 26.1937 34.0603C26.1937 34.0603 31.4616 50.2229 56.6662 63.1967C58.0581 63.4917 59.5307 63.6534 61.1053 63.6494C64.4267 63.6413 67.7502 63.6494 71.0716 63.6494C81.5585 63.6494 92.0432 63.6494 102.528 63.6494C113.344 63.6494 124.16 63.6494 134.975 63.6494C78.1053 54.5516 54.4073 41.4404 45.6417 34.8788Z" fill="white"/>
</g>
</g>
</g>
<g id="Clip path group_2">
<g id="Vector_3">
<mask id="path-3-inside-1_400_1616" fill="white">
<path d="M10.1967 62C10.096 61.0394 10.0508 60.1135 10.022 59.1722C9.99533 58.2348 9.99327 57.2993 10.0138 56.3638C10.0529 54.4908 10.1741 52.6217 10.3858 50.7622C10.8008 47.0414 11.5509 43.3514 12.6769 39.7617C13.803 36.174 15.3133 32.6865 17.249 29.4132C18.2189 27.7794 19.2936 26.1977 20.471 24.6893C21.6505 23.1809 22.943 21.7535 24.328 20.4091C25.713 19.0666 27.1884 17.807 28.7521 16.6497C30.32 15.5 31.9659 14.4469 33.6715 13.4882C35.3791 12.5334 37.1606 11.7001 38.971 10.9363C39.8854 10.5775 40.7957 10.2033 41.7306 9.89274C42.6553 9.55325 43.6026 9.27163 44.5437 8.98037C48.3267 7.85968 52.2269 7.12091 56.1537 6.64255C60.0806 6.16997 64.0423 5.97708 68 6.00215C64.0423 6.02337 60.0867 6.26255 56.1722 6.78143C52.2618 7.30416 48.3843 8.08729 44.6342 9.24656C43.7012 9.54747 42.7642 9.8368 41.8498 10.1859C40.9251 10.5042 40.0272 10.8881 39.121 11.2545C37.3353 12.0338 35.5784 12.8787 33.8995 13.8451C32.2248 14.8153 30.6097 15.8762 29.0747 17.0297C27.5459 18.1909 26.1055 19.4524 24.7554 20.7929C23.4095 22.1355 22.1519 23.559 21.0094 25.0577C19.8689 26.5584 18.8312 28.1266 17.9004 29.7488C16.0346 32.9932 14.5941 36.444 13.5317 39.9932C12.4694 43.5424 11.7769 47.1861 11.4173 50.8568C11.2344 52.6931 11.1378 54.5352 11.1234 56.3773C11.1152 57.2973 11.1296 58.2194 11.1687 59.1375C11.2077 60.0518 11.2673 60.9815 11.3721 61.8688L10.1967 62Z"/>
</mask>
<path d="M10.1967 62C10.096 61.0394 10.0508 60.1135 10.022 59.1722C9.99533 58.2348 9.99327 57.2993 10.0138 56.3638C10.0529 54.4908 10.1741 52.6217 10.3858 50.7622C10.8008 47.0414 11.5509 43.3514 12.6769 39.7617C13.803 36.174 15.3133 32.6865 17.249 29.4132C18.2189 27.7794 19.2936 26.1977 20.471 24.6893C21.6505 23.1809 22.943 21.7535 24.328 20.4091C25.713 19.0666 27.1884 17.807 28.7521 16.6497C30.32 15.5 31.9659 14.4469 33.6715 13.4882C35.3791 12.5334 37.1606 11.7001 38.971 10.9363C39.8854 10.5775 40.7957 10.2033 41.7306 9.89274C42.6553 9.55325 43.6026 9.27163 44.5437 8.98037C48.3267 7.85968 52.2269 7.12091 56.1537 6.64255C60.0806 6.16997 64.0423 5.97708 68 6.00215C64.0423 6.02337 60.0867 6.26255 56.1722 6.78143C52.2618 7.30416 48.3843 8.08729 44.6342 9.24656C43.7012 9.54747 42.7642 9.8368 41.8498 10.1859C40.9251 10.5042 40.0272 10.8881 39.121 11.2545C37.3353 12.0338 35.5784 12.8787 33.8995 13.8451C32.2248 14.8153 30.6097 15.8762 29.0747 17.0297C27.5459 18.1909 26.1055 19.4524 24.7554 20.7929C23.4095 22.1355 22.1519 23.559 21.0094 25.0577C19.8689 26.5584 18.8312 28.1266 17.9004 29.7488C16.0346 32.9932 14.5941 36.444 13.5317 39.9932C12.4694 43.5424 11.7769 47.1861 11.4173 50.8568C11.2344 52.6931 11.1378 54.5352 11.1234 56.3773C11.1152 57.2973 11.1296 58.2194 11.1687 59.1375C11.2077 60.0518 11.2673 60.9815 11.3721 61.8688L10.1967 62Z" fill="#DED47B" stroke="#DED47B" stroke-width="2.66667" mask="url(#path-3-inside-1_400_1616)"/>
</g>
</g>
<g id="Clip path group_3">
<g id="Vector_4">
<mask id="path-4-inside-2_400_1616" fill="white">
<path d="M91.2717 60.4848C83.7708 58.5632 76.4106 56.2867 69.342 53.5428C65.8127 52.1668 62.3679 50.6565 59.0433 49.0017C55.7136 47.351 52.5245 45.5257 49.5272 43.526C46.5222 41.5342 43.7628 39.3219 41.2386 36.949C38.7247 34.5762 36.4282 32.0389 34.7607 29.2549C33.9347 27.8629 33.2775 26.4067 32.9092 24.9044C32.5435 23.4041 32.4795 21.8556 32.835 20.3553C33.1854 18.853 33.9577 17.4189 35.0472 16.1472C36.1341 14.8715 37.5151 13.7543 39.0418 12.7835C42.1133 10.8419 45.709 9.45394 49.407 8.3648C51.2611 7.82325 53.1561 7.36192 55.0716 6.96478C56.9871 6.57365 58.9257 6.23668 60.8846 6C58.9205 6.21261 56.9744 6.52551 55.0486 6.89457C53.1229 7.26765 51.2176 7.70892 49.3456 8.22841C45.6144 9.27542 41.9675 10.6253 38.8117 12.5569C37.2414 13.5236 35.8067 14.6429 34.6636 15.9426C33.5178 17.2383 32.6841 18.7146 32.2903 20.2731C31.8888 21.8275 31.9246 23.4402 32.2698 24.9967C32.6228 26.5551 33.2672 28.0615 34.0856 29.4956C35.7377 32.3699 38.0214 34.9754 40.5226 37.4104C43.0263 39.8434 45.7883 42.1279 48.8009 44.1859C51.8007 46.2538 55 48.1412 58.34 49.8542C61.6749 51.5711 65.1325 53.1416 68.6745 54.5778C75.7662 57.438 83.1545 59.8269 90.686 61.8567C92.1463 62.2518 93.6143 62.6289 95.0822 63H102C98.3992 62.2278 94.8188 61.3934 91.2717 60.4848Z"/>
</mask>
<path d="M91.2717 60.4848C83.7708 58.5632 76.4106 56.2867 69.342 53.5428C65.8127 52.1668 62.3679 50.6565 59.0433 49.0017C55.7136 47.351 52.5245 45.5257 49.5272 43.526C46.5222 41.5342 43.7628 39.3219 41.2386 36.949C38.7247 34.5762 36.4282 32.0389 34.7607 29.2549C33.9347 27.8629 33.2775 26.4067 32.9092 24.9044C32.5435 23.4041 32.4795 21.8556 32.835 20.3553C33.1854 18.853 33.9577 17.4189 35.0472 16.1472C36.1341 14.8715 37.5151 13.7543 39.0418 12.7835C42.1133 10.8419 45.709 9.45394 49.407 8.3648C51.2611 7.82325 53.1561 7.36192 55.0716 6.96478C56.9871 6.57365 58.9257 6.23668 60.8846 6C58.9205 6.21261 56.9744 6.52551 55.0486 6.89457C53.1229 7.26765 51.2176 7.70892 49.3456 8.22841C45.6144 9.27542 41.9675 10.6253 38.8117 12.5569C37.2414 13.5236 35.8067 14.6429 34.6636 15.9426C33.5178 17.2383 32.6841 18.7146 32.2903 20.2731C31.8888 21.8275 31.9246 23.4402 32.2698 24.9967C32.6228 26.5551 33.2672 28.0615 34.0856 29.4956C35.7377 32.3699 38.0214 34.9754 40.5226 37.4104C43.0263 39.8434 45.7883 42.1279 48.8009 44.1859C51.8007 46.2538 55 48.1412 58.34 49.8542C61.6749 51.5711 65.1325 53.1416 68.6745 54.5778C75.7662 57.438 83.1545 59.8269 90.686 61.8567C92.1463 62.2518 93.6143 62.6289 95.0822 63H102C98.3992 62.2278 94.8188 61.3934 91.2717 60.4848Z" fill="#DED47B" stroke="#DED47B" stroke-width="2.66667" mask="url(#path-4-inside-2_400_1616)"/>
</g>
</g>
<g id="Group_2">
<g id="Group_3">
<g id="Group_4">
<path id="Vector_5" d="M78.4811 23.4096V21.6879L79.2206 21.6313C79.6498 21.5888 79.8666 21.3888 79.8666 21.0331V11.1714L78.5916 11.1068V9.3042H84.9751C86.6347 9.3042 87.9288 9.67603 88.8596 10.4197C89.7882 11.1634 90.2536 12.2789 90.2536 13.7662C90.2536 15.2495 89.7266 16.4054 88.6726 17.234C87.6186 18.0585 86.2203 18.4707 84.4821 18.4707H82.5866V21.5424L84.7286 21.607V23.4096H78.4811ZM82.5866 16.4095H84.1931C86.3627 16.4095 87.4486 15.5688 87.4486 13.8875C87.4486 12.869 87.1681 12.196 86.6071 11.8666C86.0503 11.5332 85.1642 11.3654 83.9466 11.3654H82.5866V16.4095Z" fill="white"/>
</g>
</g>
</g>
<g id="Group_5">
<g id="Group_6">
<g id="Group_7">
<path id="Vector_6" d="M92.706 21.0331V15.1565C92.706 14.9302 92.6635 14.7725 92.5785 14.6796C92.4977 14.5886 92.3575 14.5381 92.1535 14.526L91.21 14.4613V12.7396H94.984V14.332C95.2496 13.7823 95.6661 13.3276 96.2335 12.9659C96.7987 12.6062 97.449 12.4243 98.18 12.4243C98.9152 12.4243 99.6186 12.5779 100.288 12.8851V16.0457L98.214 16.1992V15.2212C98.214 14.9423 98.1396 14.7665 97.993 14.6957C97.8272 14.621 97.6275 14.5826 97.3895 14.5826C96.7945 14.5826 96.3057 14.7846 95.9275 15.1888C95.5535 15.593 95.3665 16.1063 95.3665 16.7247V21.6474L97.3045 21.7363V23.4096H91.329V21.801L92.06 21.7363C92.2852 21.704 92.451 21.6434 92.553 21.5504C92.655 21.4595 92.706 21.2877 92.706 21.0331Z" fill="white"/>
</g>
</g>
</g>
<g id="Group_8">
<g id="Group_9">
<g id="Group_10">
<path id="Vector_7" d="M105.334 12.7398V21.6477L106.601 21.7123V23.4098H101.297V21.8012L102.028 21.7366C102.457 21.6941 102.674 21.4678 102.674 21.0576V15.1567C102.674 14.9203 102.631 14.7586 102.546 14.6717C102.466 14.5869 102.325 14.5424 102.121 14.5424L101.339 14.502V12.7398H105.334ZM102.521 10.9049C102.208 10.6139 102.053 10.2421 102.053 9.78941C102.053 9.33674 102.208 8.96087 102.521 8.65774C102.831 8.35664 103.239 8.20508 103.745 8.20508C104.248 8.20508 104.659 8.35664 104.977 8.65774C105.3 8.96087 105.462 9.33674 105.462 9.78941C105.462 10.2421 105.3 10.6139 104.977 10.9049C104.659 11.1959 104.248 11.3414 103.745 11.3414C103.239 11.3414 102.831 11.1959 102.521 10.9049Z" fill="white"/>
</g>
</g>
</g>
<g id="Group_11">
<g id="Group_12">
<g id="Group_13">
<path id="Vector_8" d="M107.427 14.4613V12.7396H111.192V14.1218C112.025 12.9901 113.166 12.4243 114.618 12.4243C116.067 12.4243 117.045 12.9901 117.55 14.1218C118.383 12.9901 119.514 12.4243 120.942 12.4243C122.013 12.4243 122.837 12.7315 123.415 13.3458C123.998 13.9601 124.291 14.8817 124.291 16.1103V21.6474L125.557 21.7121V23.4096H120.253V21.801L120.984 21.7363C121.21 21.704 121.371 21.6434 121.469 21.5504C121.564 21.4595 121.618 21.2958 121.63 21.0573V16.6681C121.63 15.888 121.537 15.3101 121.35 14.9382C121.167 14.5624 120.734 14.3724 120.049 14.3724C119.363 14.3724 118.838 14.5725 118.477 14.9706C118.113 15.3646 117.933 15.8921 117.933 16.5549V21.6474L119.157 21.7121V23.4096H113.895V21.801L114.626 21.7363C114.852 21.704 115.017 21.6434 115.119 21.5504C115.221 21.4595 115.272 21.2877 115.272 21.0331V16.6681C115.272 15.888 115.179 15.3101 114.992 14.9382C114.809 14.5624 114.373 14.3724 113.683 14.3724C112.99 14.3724 112.467 14.5785 112.11 14.9867C111.753 15.397 111.575 15.9062 111.575 16.5145V21.6474L112.782 21.7121V23.4096H107.512V21.801L108.251 21.7363C108.472 21.704 108.634 21.6434 108.736 21.5504C108.842 21.4595 108.897 21.2877 108.897 21.0331H108.923V15.1807C108.923 14.9382 108.88 14.7725 108.795 14.6796C108.715 14.5886 108.57 14.5381 108.362 14.526L107.427 14.4613Z" fill="white"/>
</g>
</g>
</g>
<g id="Group_14">
<g id="Group_15">
<g id="Group_16">
<path id="Vector_9" d="M132.133 12.4243C133.249 12.4243 134.133 12.683 134.785 13.2003C135.442 13.7136 135.771 14.4371 135.771 15.3747C135.771 15.9951 135.629 16.5428 135.346 17.0157C135.061 17.4905 134.711 17.8624 134.292 18.1312C133.878 18.3959 133.374 18.6141 132.779 18.7859C131.787 19.0668 130.665 19.2062 129.413 19.2062C129.458 19.962 129.702 20.5683 130.144 21.025C130.59 21.4837 131.277 21.7121 132.201 21.7121C133.123 21.7121 134.046 21.4029 134.964 20.7825L135.814 22.4962C135.518 22.7508 135.017 23.0115 134.309 23.2802C133.599 23.549 132.792 23.6844 131.887 23.6844C130.072 23.6844 128.742 23.2075 127.892 22.2537C127.046 21.2998 126.625 19.9903 126.625 18.3252C126.625 16.6559 127.105 15.2535 128.07 14.1218C129.039 12.9901 130.393 12.4243 132.133 12.4243ZM131.122 17.2662C131.666 17.1753 132.167 16.9712 132.626 16.6519C133.085 16.3346 133.315 15.9567 133.315 15.5202C133.315 14.6594 132.868 14.2269 131.98 14.2269C131.147 14.2269 130.505 14.5421 130.059 15.1727C129.611 15.7991 129.366 16.5509 129.328 17.4279C129.978 17.4117 130.578 17.3592 131.122 17.2662Z" fill="white"/>
</g>
</g>
</g>
<g id="Group_17">
<g id="Group_18">
<g id="Group_19">
<path id="Vector_10" d="M82.6291 45.0893V35.462H80.8866C80.5466 35.462 80.3766 35.6803 80.3766 36.1168V37.111L78.0986 36.9655V33.3604H89.7691V36.9655L87.4911 37.111V36.1168C87.4911 35.8803 87.4529 35.7126 87.3806 35.6156C87.3063 35.5146 87.1278 35.462 86.8451 35.462H85.3321V45.5985L87.0916 45.6632V47.4658H80.8016V45.744L81.9831 45.6874C82.4124 45.645 82.6291 45.4449 82.6291 45.0893Z" fill="white"/>
</g>
</g>
</g>
<g id="Group_20">
<g id="Group_21">
<g id="Group_22">
<path id="Vector_11" d="M90.4784 47.4658V45.744L91.2179 45.6874C91.6471 45.645 91.8639 45.4449 91.8639 45.0893V35.2276L90.5889 35.1629V33.3604H96.6749C98.4025 33.3604 99.7264 33.6655 100.644 34.2738C101.567 34.8841 102.03 35.8803 102.03 37.2646C102.03 38.2245 101.766 39.0167 101.239 39.6411C100.712 40.2615 100.083 40.7142 99.3524 40.9991C99.89 41.183 100.315 41.6134 100.627 42.2924L102.234 45.6228L103.5 45.6632V47.4658H97.9924V45.744L98.6384 45.6874C98.9826 45.645 99.1569 45.5157 99.1569 45.2994C99.1569 45.2186 99.125 45.1216 99.0634 45.0084L98.0179 42.8825C97.8521 42.5329 97.6694 42.2844 97.4654 42.1389C97.2656 41.9893 96.983 41.9125 96.6154 41.9125H94.5839V45.5985L96.0289 45.6632V47.4658H90.4784ZM94.5839 39.8917H96.5219C98.3515 39.8917 99.2674 39.1157 99.2674 37.5637C99.2674 36.6705 99.023 36.0905 98.5364 35.8258C98.054 35.557 97.2784 35.4216 96.2074 35.4216H94.5839V39.8917Z" fill="white"/>
</g>
</g>
</g>
<g id="Group_23">
<g id="Group_24">
<g id="Group_25">
<path id="Vector_12" d="M104.902 45.0893L108.498 35.2034L107.095 35.0821V33.3604H112.195L116.751 45.5985H116.768L118.043 45.6632V47.4658H112.289V45.744L113.139 45.6874C113.388 45.6551 113.558 45.5985 113.649 45.5177C113.738 45.4328 113.747 45.2752 113.674 45.0489L113.207 43.7313H107.988L107.316 45.5985L108.651 45.6632V47.4658H103.5V45.744L104.239 45.6874C104.55 45.6551 104.771 45.4571 104.902 45.0893ZM110.597 35.7369L108.523 41.7832H112.671L110.657 35.7369H110.597Z" fill="white"/>
</g>
</g>
</g>
<g id="Group_26">
<g id="Group_27">
<g id="Group_28">
<path id="Vector_13" d="M118.531 47.4658V45.744L119.33 45.6874C119.721 45.6551 119.917 45.4571 119.917 45.0893V35.2276L118.642 35.1629V33.3604H122.654L128.969 43.0927H129.012V35.2276L127.541 35.1629V33.3604H132.981V35.0821L132.182 35.1387C131.825 35.171 131.647 35.3933 131.647 35.8015V47.4658H129.037L122.594 37.5799H122.543V45.5985L123.997 45.6632V47.4658H118.531Z" fill="white"/>
</g>
</g>
</g>
<g id="Group_29">
<g id="Group_30">
<g id="Group_31">
<path id="Vector_14" d="M138.576 45.558C140.361 45.558 141.254 44.879 141.254 43.521C141.254 42.8157 140.858 42.2923 140.072 41.9528C139.658 41.7547 139.12 41.5708 138.457 41.4031C137.794 41.2313 137.242 41.0555 136.8 40.8777C136.362 40.6999 135.924 40.4574 135.482 40.1502C134.602 39.5258 134.165 38.5659 134.165 37.2725C134.165 35.9792 134.634 34.9647 135.576 34.2251C136.521 33.4815 137.756 33.1096 139.282 33.1096C140.805 33.1096 142.223 33.3986 143.532 33.9745V37.1594L141.254 37.3049V36.0762C141.254 35.866 141.224 35.7104 141.169 35.6074C141.003 35.3386 140.48 35.2032 139.596 35.2032C138.712 35.2032 138.058 35.3548 137.633 35.6559C137.208 35.9529 136.995 36.4117 136.995 37.03C136.995 37.4827 137.174 37.8788 137.531 38.2183C137.769 38.4446 138.119 38.6346 138.585 38.7841C139.054 38.9296 139.554 39.0812 140.081 39.2368C140.612 39.3944 141.084 39.5642 141.492 39.746C141.9 39.9299 142.327 40.1825 142.775 40.5059C143.68 41.1424 144.135 42.1266 144.135 43.4563C144.135 44.788 143.634 45.8368 142.631 46.6007C141.628 47.3605 140.304 47.7405 138.661 47.7405C137.016 47.7405 135.542 47.4535 134.233 46.8755V43.521L136.502 43.3755V44.6688C136.502 44.879 136.53 45.0366 136.587 45.1376C136.649 45.2346 136.834 45.3296 137.14 45.4205C137.446 45.5135 137.924 45.558 138.576 45.558Z" fill="white"/>
</g>
</g>
</g>
<g id="Group_32">
<g id="Group_33">
<g id="Group_34">
<path id="Vector_15" d="M145 47.1054V45.3837L145.739 45.3271C146.169 45.2846 146.385 45.0846 146.385 44.7289V34.8673L145.11 34.8026V33H155.888V36.5243L153.61 36.6698V35.8211C153.61 35.5786 153.572 35.4088 153.5 35.3118C153.426 35.2148 153.247 35.1663 152.964 35.1663H149.105V38.917H154.596V41.0833H149.105V45.2382L151.094 45.3028V47.1054H145Z" fill="white"/>
</g>
</g>
</g>
<g id="Group_35">
<g id="Group_36">
<g id="Group_37">
<path id="Vector_16" d="M167.64 47.4658H157.041V45.744L157.78 45.6874C158.209 45.645 158.426 45.4449 158.426 45.0893V35.2276L157.151 35.1629V33.3604H167.368V36.8847L165.09 37.0302V36.1814C165.09 35.9389 165.052 35.7692 164.98 35.6722C164.905 35.5752 164.727 35.5267 164.444 35.5267H161.146V39.148H166.297V41.3144H161.146V45.2833H164.733C165.005 45.2833 165.177 45.2307 165.252 45.1216C165.324 45.0145 165.362 44.8427 165.362 44.6043V43.5454L167.64 43.6909V47.4658Z" fill="white"/>
</g>
</g>
</g>
<g id="Group_38">
<g id="Group_39">
<g id="Group_40">
<path id="Vector_17" d="M168.906 47.4658V45.744L169.646 45.6874C170.075 45.645 170.292 45.4449 170.292 45.0893V35.2276L169.017 35.1629V33.3604H175.103C176.83 33.3604 178.154 33.6655 179.072 34.2738C179.995 34.8841 180.458 35.8803 180.458 37.2646C180.458 38.2245 180.194 39.0167 179.667 39.6411C179.14 40.2615 178.511 40.7142 177.78 40.9991C178.318 41.183 178.743 41.6134 179.055 42.2924L180.662 45.6228L181.928 45.6632V47.4658H176.42V45.744L177.066 45.6874C177.411 45.645 177.585 45.5157 177.585 45.2994C177.585 45.2186 177.553 45.1216 177.491 45.0084L176.446 42.8825C176.28 42.5329 176.097 42.2844 175.893 42.1389C175.694 41.9893 175.411 41.9125 175.043 41.9125H173.012V45.5985L174.457 45.6632V47.4658H168.906ZM173.012 39.8917H174.95C176.779 39.8917 177.695 39.1157 177.695 37.5637C177.695 36.6705 177.451 36.0905 176.964 35.8258C176.482 35.557 175.706 35.4216 174.635 35.4216H173.012V39.8917Z" fill="white"/>
</g>
</g>
</g>
</g>
<defs>
<clipPath id="clip0_400_1616">
<rect width="182" height="64" fill="white"/>
</clipPath>
</defs>

  </symbol>
</svg>
