<svg xmlns="http://www.w3.org/2000/svg" aria-hidden="true" style="position:absolute;width:0;height:0;overflow:hidden">
  <defs>
    <symbol id="arrow-button" viewBox="0 0 32 32">
      <path fill="#ded47b" stroke="#000" stroke-width="0.8" d="m28.049 15.75-11.655 9.918v-5.716l-.631.017c-2.635.071-4.716.433-6.422 1.149l-.337.148c-1.675.772-2.935 1.875-4.178 3.227l-.532.595-.679.775v-.909c0-3.673.777-6.585 2.25-8.724l.304-.418c2.007-2.607 5.204-4.063 9.635-4.244l.59-.025V5.83l11.655 9.919z" style="fill:var(--color1, #ded47b)"/>
    </symbol>
    <symbol id="facebook" viewBox="0 0 32 32">
      <path fill="none" stroke="#ded47b" stroke-linecap="round" stroke-linejoin="round" stroke-width="2.08" d="M24 1.6h-4.364c-1.929 0-3.779.759-5.143 2.109s-2.13 3.182-2.13 5.091v4.32H7.999v5.76h4.364V30.4h5.818V18.88h4.364L24 13.12h-5.818V8.8c0-.382.153-.748.426-1.018s.643-.422 1.029-.422h4.364V1.6z" style="stroke:var(--color1, #ded47b)"/>
    </symbol>
    <symbol id="ic-close" viewBox="0 0 32 32">
      <path fill="#fcfae9" d="M16 .333C24.652.333 31.667 7.347 31.667 16S24.653 31.667 16 31.667C7.348 31.667.333 24.653.333 16S7.347.333 16 .333z" style="fill:var(--color2, #fcfae9)"/>
      <path fill="none" stroke="#090b15" stroke-width=".667" d="M16 .333C24.652.333 31.667 7.347 31.667 16S24.653 31.667 16 31.667C7.348 31.667.333 24.653.333 16S7.347.333 16 .333z" style="stroke:var(--color3, #090b15)"/>
      <path fill="#090b15" d="m25.622 8.547-1.88-1.88-7.453 7.453-7.453-7.453-1.88 1.88L14.409 16l-7.453 7.453 1.88 1.88 7.453-7.453 7.453 7.453 1.88-1.88L18.169 16l7.453-7.453z" style="fill:var(--color3, #090b15)"/>
    </symbol>
    <symbol id="icon_google" viewBox="0 0 32 32">
      <path fill="#fff" d="M11.148 1.052a15.818 15.818 0 0 0 1.083 30.224 16.9 16.9 0 0 0 8.09.088 14.29 14.29 0 0 0 6.475-3.365 14.363 14.363 0 0 0 4-6.565c.774-2.731.912-5.603.403-8.395h-14.88v6.172h8.617a7.413 7.413 0 0 1-3.165 4.879 9.038 9.038 0 0 1-3.482 1.375 10.325 10.325 0 0 1-3.775 0 9.295 9.295 0 0 1-3.513-1.532 9.824 9.824 0 0 1-3.625-4.855 9.573 9.573 0 0 1 0-6.157 9.812 9.812 0 0 1 2.295-3.727 9.286 9.286 0 0 1 9.363-2.445 8.574 8.574 0 0 1 3.41 2c.972-.967 1.942-1.936 2.91-2.908.5-.522 1.045-1.02 1.537-1.555a15.312 15.312 0 0 0-5.09-3.14 15.996 15.996 0 0 0-10.652-.095z" style="fill:var(--color4, #fff)"/>
      <path fill="#e33629" d="M11.148 1.052a15.996 15.996 0 0 1 10.652.093A15.307 15.307 0 0 1 26.888 4.3c-.5.535-1.028 1.035-1.538 1.555-.97.968-1.939 1.933-2.907 2.895a8.574 8.574 0 0 0-3.41-2 9.29 9.29 0 0 0-9.365 2.435 9.816 9.816 0 0 0-2.295 3.728L2.19 8.901a15.885 15.885 0 0 1 8.958-7.848z" style="fill:var(--color5, #e33629)"/>
      <path fill="#f8bd00" d="M.815 12.875A15.767 15.767 0 0 1 2.19 8.9l5.183 4.023a9.573 9.573 0 0 0 0 6.157A1457.926 1457.926 0 0 0 2.19 23.1 15.834 15.834 0 0 1 .815 12.875z" style="fill:var(--color6, #f8bd00)"/>
      <path fill="#587dbd" d="M16.318 13.038h14.88a18.573 18.573 0 0 1-.403 8.395 14.363 14.363 0 0 1-4 6.565c-1.672-1.305-3.352-2.6-5.025-3.905a7.425 7.425 0 0 0 3.165-4.885h-8.617c-.003-2.055 0-4.113 0-6.17z" style="fill:var(--color7, #587dbd)"/>
      <path fill="#319f43" d="M2.188 23.1c1.728-1.333 3.456-2.673 5.183-4.02a9.824 9.824 0 0 0 3.63 4.855 9.3 9.3 0 0 0 3.52 1.52c1.248.232 2.527.232 3.775 0a9.049 9.049 0 0 0 3.483-1.375c1.672 1.305 3.352 2.6 5.025 3.905a14.285 14.285 0 0 1-6.475 3.368 16.9 16.9 0 0 1-8.09-.088 15.748 15.748 0 0 1-5.75-2.897 15.922 15.922 0 0 1-4.3-5.268z" style="fill:var(--color8, #319f43)"/>
    </symbol>
    <symbol id="instagram" viewBox="0 0 32 32">
      <path fill="none" stroke="#ded47b" stroke-width="1.6" d="M16 1.6c3.104 0 4.158 0 5.159.038l1.058.053h.028a10.29 10.29 0 0 1 3.014.517l.422.15a6.34 6.34 0 0 1 2.133 1.3l.256.252.017.016a6.707 6.707 0 0 1 1.57 2.392v.002c.403 1.103.624 2.264.652 3.438v.027c.09 1.585.091 2.078.091 6.217 0 2.06-.023 3.216-.045 4.056-.022.83-.045 1.378-.045 2.187a10.773 10.773 0 0 1-.648 3.43 6.575 6.575 0 0 1-1.572 2.398l-.019.019a6.347 6.347 0 0 1-2.053 1.419l-.344.136c-1.096.414-2.256.64-3.428.664h-.028c-1.584.09-2.078.091-6.217.091s-4.633-.001-6.217-.091h-.028a10.29 10.29 0 0 1-3.014-.517l-.414-.147-.006-.002-.334-.134a6.47 6.47 0 0 1-2.059-1.42l-.008-.009-.009-.009-.252-.256a6.33 6.33 0 0 1-1.167-1.797l-.136-.344-.147-.414a10.29 10.29 0 0 1-.517-3.014v-.028l-.053-1.058c-.038-1.001-.038-2.055-.038-5.159 0-4.139.001-4.633.091-6.217v-.028a10.29 10.29 0 0 1 .517-3.014l.147-.414.003-.008c.33-.904.86-1.721 1.552-2.389l.009-.009.008-.009a6.455 6.455 0 0 1 2.059-1.42l.334-.134.006-.002a10.303 10.303 0 0 1 3.428-.664h.028c1.585-.09 2.078-.091 6.217-.091zm0 1.136c-2.005 0-3.153.022-3.991.045-.421.012-.757.023-1.081.031l-1.014.014a9.51 9.51 0 0 0-2.772.436l-.381.13-.025.008-.023.011A5.575 5.575 0 0 0 4.788 4.8a5.369 5.369 0 0 0-1.367 1.923l-.005.014-.006.014a9.217 9.217 0 0 0-.581 3.12c-.093 1.549-.092 2.137-.092 6.128 0 2.005.022 3.153.045 3.991.023.842.045 1.344.045 2.089v.012l.002.012a9.24 9.24 0 0 0 .653 3.13v.002a5.36 5.36 0 0 0 1.303 2.034v.002a5.784 5.784 0 0 0 1.941 1.324l.025.009.027.009a9.515 9.515 0 0 0 3.184.497c1.528.091 2.133.092 6.1.092 3.972 0 4.57-.017 6.088-.092l.002.002a9.354 9.354 0 0 0 2.719-.437l.373-.128.008-.003a5.67 5.67 0 0 0 2.038-1.328l-.002-.002a5.445 5.445 0 0 0 1.206-1.744l.116-.287v-.002a9.349 9.349 0 0 0 .566-3.092l-.002-.002c.076-1.517.092-2.116.092-6.088 0-3-.008-4.076-.045-5.077l-.047-1.044a9.343 9.343 0 0 0-.564-3.122l-.009-.022-.117-.275a5.459 5.459 0 0 0-1.192-1.658 5.457 5.457 0 0 0-1.805-1.288l-.298-.122-.005-.002-.373-.128a9.349 9.349 0 0 0-2.692-.438c-1.539-.092-2.135-.091-6.116-.091zm.002 6.267h.002a6.98 6.98 0 0 1 7.002 6.65l.008.345V16a6.999 6.999 0 0 1-7.847 6.945l-.511-.081a7 7 0 0 1-5.108-9.533 6.997 6.997 0 0 1 5.937-4.309l.517-.019zm2.242 1.581a5.861 5.861 0 0 0-5.851 10.036l.352.253a5.862 5.862 0 0 0 8.358-7.76l-.228-.369a5.856 5.856 0 0 0-2.63-2.159zm5.873-3.725a1.023 1.023 0 1 1-.993.775l.047-.144a1.028 1.028 0 0 1 .947-.631z" style="stroke:var(--color1, #ded47b)"/>
    </symbol>
    <symbol id="logos_apple" viewBox="0 0 32 32">
      <path fill="#fff" d="M25.384 16.968c.048 4.833 4.565 6.442 4.615 6.462-.038.113-.722 2.292-2.38 4.543-1.433 1.946-2.921 3.884-5.264 3.924-2.302.04-3.043-1.268-5.675-1.268s-3.454 1.228-5.634 1.308c-2.262.079-3.984-2.104-5.429-4.043-2.953-3.965-5.21-11.205-2.18-16.092a8.527 8.527 0 0 1 7.115-4.003c2.221-.039 4.318 1.388 5.675 1.388s3.905-1.716 6.583-1.464c1.121.043 4.268.421 6.289 3.168-.163.094-3.755 2.036-3.716 6.077zM21.057 5.1c1.201-1.35 2.009-3.229 1.789-5.1-1.731.065-3.824 1.071-5.066 2.421-1.113 1.195-2.087 3.107-1.824 4.941 1.929.139 3.9-.911 5.101-2.262z" style="fill:var(--color4, #fff)"/>
    </symbol>
    <symbol id="phone" viewBox="0 0 32 32">
      <path fill="none" stroke="#fff" stroke-linecap="round" stroke-linejoin="round" stroke-width="2.37" d="M19.396 7.214c1.33.259 2.552.908 3.511 1.865s1.609 2.176 1.868 3.504M19.396 1.778c2.763.306 5.34 1.542 7.308 3.503s3.208 4.531 3.518 7.289M28.86 23.415v4.077a2.704 2.704 0 0 1-.882 2.014 2.735 2.735 0 0 1-2.087.704 26.981 26.981 0 0 1-11.752-4.173 26.538 26.538 0 0 1-8.171-8.155A26.873 26.873 0 0 1 1.787 6.098a2.722 2.722 0 0 1 .701-2.077 2.726 2.726 0 0 1 2.009-.886h4.085a2.718 2.718 0 0 1 2.724 2.338c.172 1.305.492 2.586.953 3.819a2.71 2.71 0 0 1-.613 2.867l-1.729 1.726a21.77 21.77 0 0 0 8.17 8.155l1.729-1.726a2.734 2.734 0 0 1 2.873-.612c1.236.46 2.519.779 3.827.951a2.721 2.721 0 0 1 2.342 2.759z" style="stroke:var(--color4, #fff)"/>
    </symbol>
    <symbol id="scroll" viewBox="0 0 32 32">
      <path fill="#fcfae9" stroke="#000" stroke-width=".4" d="M15.374 3.892c.33.032.548.072.705.154.142.074.248.189.33.42.085.241.138.596.168 1.13.03.53.036 1.22.036 2.123 0 1.452-.001 2.201.041 2.543a.85.85 0 0 0 .052.228c.026.061.094.17.234.174.056.002.103-.016.133-.031s.057-.035.078-.052l.12-.112c.184-.184.513-.286.892-.27.328.014.664.116.925.294l.107.081c.209.176.296.276.345.397.052.13.069.306.069.662v1.312l.347-.372.32-.344c.19-.204.405-.326.65-.377.217-.045.467-.037.757.035l.127.035c.351.105.582.257.727.456s.224.473.224.852v1.133l.347-.372.337-.362c.173-.186.491-.28.864-.244.322.031.654.158.908.366l.104.094.359.359.123 4.134c.034 1.157.056 2.284.061 3.166.003.441.001.821-.004 1.113-.003.149-.006.271-.01.366l-.015.201c-.022.157-.123.472-.28.865-.116.29-.257.612-.409.927l-.154.31c-.624 1.219-.886 1.952-1.112 3.227l-.095.583-.065.421h-7.651l-.078-.427c-.119-.644-.305-1.168-.665-1.725-.267-.413-.628-.842-1.12-1.351l-.538-.538-1.513-1.474-1.504-3.042c-1.019-2.061-1.624-3.131-2.337-4.084l-.313-.405c-.676-.841-1.035-1.309-1.214-1.627a1.013 1.013 0 0 1-.136-.35.553.553 0 0 1-.003-.129l.027-.149c.033-.131.193-.306.479-.455.241-.125.535-.211.822-.229l.124-.003c.505 0 1.111.27 1.745.795.551.457 1.108 1.093 1.617 1.867l.216.34c.366.6.644.997.895 1.206.13.108.268.18.422.192a.619.619 0 0 0 .322-.066l.095-.053h.001c.125-.079.194-.201.24-.396.044-.188.074-.476.098-.932.024-.459.043-1.102.059-2.007l.051-3.583.077-6.484.299-.241c.259-.209.528-.301.948-.285l.189.013zM8.417 2.646v4.255h.922c.162 0 .302.011.405.027a68.314 68.314 0 0 1-.994 2.014c-.234.457-.462.895-.634 1.218-.051.096-.098.18-.138.252-.046-.081-.103-.179-.164-.291a35.834 35.834 0 0 1-.328-.62l-.387-.762a98.425 98.425 0 0 1-.884-1.821c.115-.01.266-.017.433-.017h.909V2.646h.861zm6.804-.16a2.73 2.73 0 0 1 2.356 1.329l.096.171c.126.241.197.682.191 1.164-.005.419-.068.832-.177 1.125l-.049.118a3.43 3.43 0 0 1-.122.235 3.528 3.528 0 0 1 .004-.284l.03-.398c.065-.657.041-1.19-.102-1.63a1.997 1.997 0 0 0-.656-.954l-.139-.106c-1.131-.806-2.549-.565-3.366.543l-.077.11c-.168.252-.275.455-.327.743a3.995 3.995 0 0 0-.037.785l.012.365c.012.301.016.54.01.72l-.002.021a6.266 6.266 0 0 1-.184-.523l-.08-.277c-.422-1.572.912-3.255 2.619-3.255z" style="fill:var(--color2, #fcfae9)"/>
    </symbol>
    <symbol id="twitter" viewBox="0 0 32 32">
      <path fill="none" stroke="#ded47b" stroke-linecap="round" stroke-linejoin="round" stroke-width="3.556" d="M30.222 2.682a13.417 13.417 0 0 1-4.06 2.274c-.779-1.029-1.814-1.759-2.965-2.09s-2.363-.248-3.471.239c-1.109.486-2.061 1.352-2.727 2.481S15.984 8.051 16 9.415v1.486c-2.272.068-4.524-.511-6.554-1.686S5.67 6.307 4.364 4.169c0 0-5.172 13.375 6.465 19.32-2.663 2.078-5.835 3.119-9.05 2.972 11.636 7.431 25.859 0 25.859-17.091a7.693 7.693 0 0 0-.103-1.233c1.319-1.496 2.251-3.384 2.689-5.454z" style="stroke:var(--color1, #ded47b)"/>
    </symbol>
  </defs>
</svg>