<svg width="36" height="36" viewBox="0 0 36 36" fill="none" xmlns="http://www.w3.org/2000/svg">
<g clip-path="url(#clip0_192_1360)">
<path d="M25.1595 0.0180158C25.083 -0.0674842 22.3267 0.0517658 19.9282 2.65502C17.5297 5.25602 17.8987 8.23952 17.9527 8.31602C18.0067 8.39252 21.3727 8.51177 23.5215 5.48552C25.6702 2.45927 25.236 0.105766 25.1595 0.0180158ZM32.616 26.4173C32.508 26.2013 27.3847 23.6408 27.8617 18.7178C28.3387 13.7948 31.6305 12.4425 31.6822 12.2963C31.734 12.15 30.339 10.5188 28.8607 9.69302C27.7751 9.11139 26.574 8.77788 25.344 8.71652C25.101 8.70977 24.2572 8.50277 22.5225 8.97752C21.3795 9.29027 18.8032 10.3028 18.0945 10.3433C17.3835 10.3838 15.2685 9.16877 12.9937 8.84702C11.538 8.56577 9.99446 9.14177 8.88971 9.58502C7.78721 10.026 5.69021 11.2815 4.22321 14.6183C2.75621 17.9528 3.52346 23.2358 4.07246 24.8783C4.62146 26.5208 5.47871 29.2073 6.93671 31.1693C8.23271 33.3833 9.95171 34.92 10.6695 35.442C11.3872 35.964 13.4122 36.3105 14.8162 35.5928C15.9457 34.8998 17.9842 34.5015 18.7897 34.5308C19.593 34.56 21.177 34.8773 22.7992 35.7435C24.084 36.1868 25.299 36.0023 26.5162 35.5073C27.7335 35.01 29.4952 33.1245 31.5517 29.3018C32.3317 27.5243 32.6865 26.5628 32.616 26.4173Z" fill="#090B15"/>
<path d="M25.1595 0.0180158C25.083 -0.0674842 22.3267 0.0517658 19.9282 2.65502C17.5297 5.25602 17.8987 8.23952 17.9527 8.31602C18.0067 8.39252 21.3727 8.51177 23.5215 5.48552C25.6702 2.45927 25.236 0.105766 25.1595 0.0180158ZM32.616 26.4173C32.508 26.2013 27.3847 23.6408 27.8617 18.7178C28.3387 13.7948 31.6305 12.4425 31.6822 12.2963C31.734 12.15 30.339 10.5188 28.8607 9.69302C27.7751 9.11139 26.574 8.77788 25.344 8.71652C25.101 8.70977 24.2572 8.50277 22.5225 8.97752C21.3795 9.29027 18.8032 10.3028 18.0945 10.3433C17.3835 10.3838 15.2685 9.16877 12.9937 8.84702C11.538 8.56577 9.99446 9.14177 8.88971 9.58502C7.78721 10.026 5.69021 11.2815 4.22321 14.6183C2.75621 17.9528 3.52346 23.2358 4.07246 24.8783C4.62146 26.5208 5.47871 29.2073 6.93671 31.1693C8.23271 33.3833 9.95171 34.92 10.6695 35.442C11.3872 35.964 13.4122 36.3105 14.8162 35.5928C15.9457 34.8998 17.9842 34.5015 18.7897 34.5308C19.593 34.56 21.177 34.8773 22.7992 35.7435C24.084 36.1868 25.299 36.0023 26.5162 35.5073C27.7335 35.01 29.4952 33.1245 31.5517 29.3018C32.3317 27.5243 32.6865 26.5628 32.616 26.4173Z" fill="#090B15"/>
</g>
<defs>
<clipPath id="clip0_192_1360">
<rect width="36" height="36" fill="white"/>
</clipPath>
</defs>
</svg>
