<svg width="16" height="15" viewBox="0 0 16 15" fill="none" xmlns="http://www.w3.org/2000/svg">
<g id="formkit:email">
<path id="Vector" d="M14.5 13.5H1.5C0.67 13.5 0 12.83 0 12V3C0 2.17 0.67 1.5 1.5 1.5H14.5C15.33 1.5 16 2.17 16 3V12C16 12.83 15.33 13.5 14.5 13.5ZM1.5 2.5C1.22 2.5 1 2.72 1 3V12C1 12.28 1.22 12.5 1.5 12.5H14.5C14.78 12.5 15 12.28 15 12V3C15 2.72 14.78 2.5 14.5 2.5H1.5Z" fill="black"/>
<path id="Vector_2" d="M8.00005 9.46C7.30005 9.46 6.66005 9.18 6.18005 8.67L0.930045 3.09C0.740045 2.89 0.750045 2.57 0.950045 2.38C1.15005 2.19 1.47005 2.2 1.66005 2.4L6.91005 7.98C7.48005 8.59 8.52005 8.59 9.09005 7.98L14.34 2.41C14.53 2.21 14.85 2.2 15.05 2.39C15.25 2.58 15.26 2.9 15.07 3.1L9.82005 8.68C9.34005 9.19 8.70005 9.47 8.00005 9.47V9.46Z" fill="black"/>
</g>
</svg>
