<svg width="16" height="17" viewBox="0 0 16 17" fill="none" xmlns="http://www.w3.org/2000/svg">
<g id="hugeicons:location-04" clip-path="url(#clip0_295_1468)">
<g id="Group">
<path id="Vector" d="M4.66663 13.167C3.44729 13.4416 2.66663 13.863 2.66663 14.3363C2.66663 15.163 5.05463 15.8336 7.99996 15.8336C10.9453 15.8336 13.3333 15.163 13.3333 14.3363C13.3333 13.863 12.5526 13.4416 11.3333 13.167M9.66663 7.16697C9.66663 7.609 9.49103 8.03292 9.17847 8.34548C8.86591 8.65804 8.44199 8.83364 7.99996 8.83364C7.55793 8.83364 7.13401 8.65804 6.82145 8.34548C6.50889 8.03292 6.33329 7.609 6.33329 7.16697C6.33329 6.72494 6.50889 6.30102 6.82145 5.98846C7.13401 5.6759 7.55793 5.50031 7.99996 5.50031C8.44199 5.50031 8.86591 5.6759 9.17847 5.98846C9.49103 6.30102 9.66663 6.72494 9.66663 7.16697Z" stroke="#090B15" stroke-linecap="round" stroke-linejoin="round"/>
<path id="Vector_2" d="M8.83799 12.1626C8.61281 12.3793 8.31248 12.5003 7.99999 12.5003C7.68751 12.5003 7.38718 12.3793 7.16199 12.1626C5.10266 10.1673 2.34333 7.93865 3.68866 4.70265C4.41733 2.95265 6.16399 1.83331 7.99999 1.83331C9.83599 1.83331 11.5833 2.95331 12.3113 4.70265C13.6553 7.93398 10.9027 10.174 8.83799 12.1626Z" stroke="#090B15" stroke-linecap="round" stroke-linejoin="round"/>
</g>
</g>
<defs>
<clipPath id="clip0_295_1468">
<rect width="16" height="16" fill="white" transform="translate(0 0.5)"/>
</clipPath>
</defs>
</svg>
