<svg width="14" height="16" viewBox="0 0 14 16" fill="none" xmlns="http://www.w3.org/2000/svg">
<g id="logos:apple">
<path id="Vector" d="M11.6919 8.48406C11.716 10.9008 13.9745 11.705 13.9995 11.7153C13.9804 11.772 13.6386 12.8614 12.8097 13.9866C12.0931 14.9594 11.3493 15.9287 10.1776 15.9487C9.02641 15.9685 8.65617 15.3147 7.33996 15.3147C6.02412 15.3147 5.61281 15.9287 4.523 15.9685C3.39206 16.0082 2.53085 14.9165 1.80832 13.9472C0.331753 11.9646 -0.796615 8.34469 0.718503 5.90121C1.47117 4.68775 2.81632 3.91939 4.27625 3.89968C5.38679 3.88003 6.43504 4.59363 7.11393 4.59363C7.79239 4.59363 9.06622 3.73547 10.4054 3.86149C10.9659 3.88317 12.5396 4.07177 13.55 5.44554C13.4686 5.49242 11.6724 6.46364 11.6919 8.48411M9.52828 2.54979C10.1287 1.87474 10.5328 0.93506 10.4226 0C9.5571 0.0323048 8.5106 0.53567 7.88978 1.21031C7.33345 1.8078 6.84624 2.76404 6.97771 3.68056C7.94239 3.74989 8.92781 3.22524 9.52828 2.54979Z" fill="white"/>
</g>
</svg>
