<svg width="40" height="40" viewBox="0 0 40 40" fill="none" xmlns="http://www.w3.org/2000/svg">
<g id="gui-gesture-scroll-down-svgrepo-com 1">
<path id="Vector" d="M19.218 4.86467C19.6307 4.90477 19.903 4.95512 20.0989 5.05705C20.276 5.14923 20.4093 5.29378 20.511 5.58244C20.6173 5.88416 20.6836 6.32774 20.7209 6.99455C20.7581 7.65735 20.7659 8.51923 20.7659 9.64787C20.7659 11.4628 20.765 12.3995 20.8167 12.8266C20.8295 12.9329 20.8483 13.0325 20.8821 13.1117C20.9149 13.1885 20.9993 13.324 21.1741 13.3295C21.2444 13.3317 21.3024 13.3095 21.3401 13.2905C21.3785 13.271 21.4119 13.2469 21.4377 13.226L21.5872 13.0854C21.8177 12.8551 22.2283 12.7274 22.7024 12.7475C23.113 12.765 23.533 12.8926 23.8586 13.1156L23.9924 13.2172C24.2535 13.4369 24.3625 13.562 24.4231 13.7133C24.4879 13.8754 24.509 14.0961 24.509 14.5405V16.1811L24.9426 15.7162L25.342 15.2865C25.5792 15.0321 25.8481 14.8789 26.1545 14.8149C26.4256 14.7583 26.7386 14.7689 27.1008 14.8588L27.26 14.9028C27.6987 15.0338 27.9871 15.2237 28.1692 15.4731C28.3519 15.7234 28.4495 16.0643 28.4495 16.5375V17.9535L28.8831 17.4887L29.3049 17.0356C29.5214 16.8032 29.9188 16.6856 30.385 16.7309C30.7878 16.7701 31.2022 16.9287 31.5198 17.1879L31.6497 17.3051L32.0979 17.7533L32.2512 22.9203C32.2942 24.3667 32.3206 25.775 32.3274 26.8783C32.3308 27.4301 32.3287 27.9045 32.3225 28.269C32.3193 28.4549 32.3152 28.6082 32.3098 28.727L32.2913 28.978C32.2632 29.1743 32.1373 29.5678 31.9417 30.059C31.7973 30.4216 31.6199 30.8244 31.4309 31.2172L31.2385 31.6049C30.4582 33.1285 30.1308 34.0448 29.8489 35.6381L29.7297 36.3666L29.6487 36.893H20.0852L19.9875 36.3588C19.8393 35.5534 19.6065 34.8989 19.1565 34.2026C18.8226 33.6859 18.3718 33.1502 17.7561 32.5141L17.0833 31.8412L15.1926 29.9985L13.3127 26.1957C12.0394 23.6197 11.2824 22.2821 10.3918 21.0903L10.0002 20.5844C9.15549 19.5328 8.70587 18.9478 8.48267 18.5502C8.37366 18.356 8.32808 18.2218 8.31274 18.1127C8.3053 18.0596 8.30364 18.0076 8.30884 17.9516L8.34302 17.7651C8.38414 17.6011 8.5837 17.3822 8.94165 17.1967C9.24249 17.0409 9.61096 16.933 9.96899 16.9106L10.1223 16.9067H10.1243C10.756 16.9068 11.5134 17.2444 12.3059 17.9008C12.9949 18.4715 13.6904 19.2672 14.3274 20.2348L14.5969 20.6596C15.0538 21.4095 15.4023 21.9059 15.7161 22.1674C15.8784 22.3027 16.0517 22.393 16.2434 22.4076C16.3886 22.4187 16.5224 22.3845 16.6458 22.3256L16.7649 22.2592H16.7659C16.9223 22.1603 17.0086 22.0074 17.0657 21.7641C17.1206 21.5297 17.1578 21.1691 17.1877 20.599C17.2179 20.0255 17.2409 19.2219 17.262 18.0903L17.3254 13.6117L17.4221 5.50627L17.7961 5.20451C18.1198 4.94268 18.4565 4.8288 18.9817 4.84807L19.218 4.86467ZM10.5208 3.30705V8.62639H11.6731C11.8754 8.62639 12.0512 8.64058 12.1799 8.65959C11.9453 9.17034 11.4351 10.2024 10.9368 11.1772C10.6448 11.7483 10.3599 12.2954 10.1438 12.6996C10.08 12.8191 10.0208 12.9245 9.97095 13.0151C9.913 12.9136 9.84246 12.7919 9.76587 12.6508C9.64624 12.4304 9.50692 12.1676 9.35571 11.8754L8.87231 10.9233C8.53513 10.2463 8.2289 9.62041 8.00708 9.15764C7.90826 8.95147 7.82688 8.77831 7.76685 8.64787C7.91071 8.63495 8.09949 8.62639 8.30786 8.62639H9.44458V3.30705H10.5208ZM19.0266 3.10686C20.2454 3.10693 21.3362 3.72543 21.9719 4.76799L22.092 4.98186C22.2495 5.28325 22.3388 5.83453 22.3313 6.43694C22.3248 6.96062 22.2459 7.47661 22.1096 7.84319L22.0481 7.99065C21.9919 8.10895 21.9405 8.2059 21.8958 8.28459C21.8929 8.18515 21.8939 8.06677 21.9006 7.92912L21.9387 7.43108C22.0197 6.60925 21.9903 5.94385 21.8118 5.39397C21.653 4.90516 21.3807 4.52059 20.9915 4.20158L20.8176 4.06877C19.4035 3.06168 17.6316 3.36193 16.6096 4.74748L16.5129 4.88518C16.3025 5.20018 16.1693 5.45406 16.1047 5.81389C16.0585 6.07151 16.0484 6.37825 16.0579 6.79533L16.0735 7.25139C16.0889 7.62789 16.0932 7.92595 16.0862 8.1508C16.0859 8.15976 16.0845 8.16852 16.0842 8.17717C16.0194 8.021 15.933 7.7801 15.8538 7.52287L15.7532 7.17619C15.2254 5.2106 16.8934 3.10686 19.0266 3.10686Z" fill="#FCFAE9" stroke="#090A15" stroke-width="0.5"/>
</g>
</svg>
