<svg width="18" height="18" viewBox="0 0 18 18" fill="none" xmlns="http://www.w3.org/2000/svg">
<path id="Vector" d="M17 1.50841C16.3036 2.07307 15.5324 2.50495 14.7164 2.78741C14.2784 2.20852 13.6962 1.79822 13.0488 1.612C12.4013 1.42578 11.7196 1.47262 11.0961 1.74619C10.4725 2.01977 9.93705 2.50686 9.56217 3.14161C9.18729 3.77636 8.99105 4.52813 9 5.29525V6.1312C7.72192 6.1693 6.45547 5.84348 5.31346 5.18277C4.17145 4.52207 3.18932 3.54698 2.45455 2.34435C2.45455 2.34435 -0.454545 9.86789 6.09091 13.2117C4.59311 14.3803 2.80884 14.9663 1 14.8836C7.54545 19.0633 15.5455 14.8836 15.5455 5.27018C15.5448 5.03733 15.5253 4.80505 15.4873 4.57634C16.2295 3.73495 16.7533 2.67264 17 1.50841Z" stroke="#DED47B" stroke-width="2" stroke-linecap="round" stroke-linejoin="round"/>
</svg>
